<?xml version="1.0" encoding="UTF-8"?>
<svg xmlns="http://www.w3.org/2000/svg" width="1200" height="630" viewBox="0 0 1200 630" role="img" aria-labelledby="title description" preserveAspectRatio="xMidYMid meet" style="max-width:100%;height:auto;display:block" data-theme="nebula" data-fingerprint="57180f78edf99b61">
  <title id="title">Constellation for Curiosity builds constellations</title>
  <desc id="description">Deterministic connected constellation with 32 stars and 45 edges.</desc>
  <metadata>{&quot;canvas&quot;:{&quot;height&quot;:630,&quot;width&quot;:1200},&quot;fingerprint&quot;:&quot;57180f78edf99b61&quot;,&quot;generator&quot;:&quot;text-constellation&quot;,&quot;graph&quot;:{&quot;average_degree&quot;:2.812,&quot;average_edge_length&quot;:106.03,&quot;backbone_edges&quot;:31,&quot;connected&quot;:true,&quot;density&quot;:0.09073,&quot;edges&quot;:45,&quot;local_edges&quot;:14,&quot;longest_edge&quot;:303.417,&quot;max_degree&quot;:4,&quot;stars&quot;:32},&quot;theme&quot;:&quot;nebula&quot;,&quot;version&quot;:&quot;0.2.0&quot;}</metadata>
  <defs>
    <radialGradient id="sky"><stop stop-color="hsl(233 58% 20%)"/><stop offset="1" stop-color="hsl(233 72% 5%)"/></radialGradient>
    <filter id="glow"><feFlood flood-color="#c7a4ff" flood-opacity=".65"/><feComposite in2="SourceGraphic" operator="in"/><feGaussianBlur stdDeviation="2.4"/><feMerge><feMergeNode/><feMergeNode in="SourceGraphic"/></feMerge></filter>
  </defs>
  <rect width="1200" height="630" fill="url(#sky)"/>
  <g class="backbone" stroke="hsl(309 82% 79%)" stroke-width="1.4"><line x1="694.57" y1="327.66" x2="715.31" y2="390.03" stroke-opacity="0.685" data-edge="0-16" /><line x1="74.58" y1="447.32" x2="142.28" y2="526.12" stroke-opacity="0.665" data-edge="1-4" /><line x1="683.45" y1="427.07" x2="715.31" y2="390.03" stroke-opacity="0.694" data-edge="2-16" /><line x1="683.45" y1="427.07" x2="588.69" y2="407.61" stroke-opacity="0.669" data-edge="2-27" /><line x1="106.11" y1="160.57" x2="144.11" y2="106.15" stroke-opacity="0.685" data-edge="3-17" /><line x1="142.28" y1="526.12" x2="210.67" y2="511.99" stroke-opacity="0.683" data-edge="4-10" /><line x1="1108.20" y1="307.71" x2="1088.01" y2="529.34" stroke-opacity="0.602" data-edge="5-15" /><line x1="1108.20" y1="307.71" x2="1108.56" y2="271.60" stroke-opacity="0.701" data-edge="5-23" /><line x1="620.50" y1="554.19" x2="591.02" y2="494.85" stroke-opacity="0.685" data-edge="6-8" /><line x1="425.65" y1="58.79" x2="438.37" y2="211.33" stroke-opacity="0.639" data-edge="7-20" /><line x1="591.02" y1="494.85" x2="552.80" y2="550.29" stroke-opacity="0.684" data-edge="8-11" /><line x1="591.02" y1="494.85" x2="529.11" y2="456.62" stroke-opacity="0.681" data-edge="8-30" /><line x1="182.99" y1="167.71" x2="186.45" y2="184.35" stroke-opacity="0.711" data-edge="9-14" /><line x1="182.99" y1="167.71" x2="144.11" y2="106.15" stroke-opacity="0.681" data-edge="9-17" /><line x1="210.67" y1="511.99" x2="220.99" y2="402.57" stroke-opacity="0.662" data-edge="10-21" /><line x1="423.38" y1="429.62" x2="503.32" y2="426.96" stroke-opacity="0.678" data-edge="12-13" /><line x1="423.38" y1="429.62" x2="414.10" y2="454.33" stroke-opacity="0.706" data-edge="12-29" /><line x1="503.32" y1="426.96" x2="529.11" y2="456.62" stroke-opacity="0.699" data-edge="13-30" /><line x1="186.45" y1="184.35" x2="273.49" y2="193.44" stroke-opacity="0.674" data-edge="14-19" /><line x1="715.31" y1="390.03" x2="753.07" y2="383.78" stroke-opacity="0.700" data-edge="16-31" /><line x1="560.06" y1="272.65" x2="438.37" y2="211.33" stroke-opacity="0.648" data-edge="18-20" /><line x1="560.06" y1="272.65" x2="576.37" y2="286.11" stroke-opacity="0.709" data-edge="18-24" /><line x1="560.06" y1="272.65" x2="638.51" y2="127.56" stroke-opacity="0.632" data-edge="18-25" /><line x1="273.49" y1="193.44" x2="438.37" y2="211.33" stroke-opacity="0.632" data-edge="19-20" /><line x1="220.99" y1="402.57" x2="186.99" y2="404.56" stroke-opacity="0.702" data-edge="21-22" /><line x1="220.99" y1="402.57" x2="414.10" y2="454.33" stroke-opacity="0.614" data-edge="21-29" /><line x1="1108.56" y1="271.60" x2="981.11" y2="123.11" stroke-opacity="0.616" data-edge="23-28" /><line x1="576.37" y1="286.11" x2="588.69" y2="407.61" stroke-opacity="0.655" data-edge="24-27" /><line x1="638.51" y1="127.56" x2="677.71" y2="125.73" stroke-opacity="0.699" data-edge="25-26" /><line x1="677.71" y1="125.73" x2="981.11" y2="123.11" stroke-opacity="0.559" data-edge="26-28" /><line x1="588.69" y1="407.61" x2="529.11" y2="456.62" stroke-opacity="0.679" data-edge="27-30" /></g>
  <g class="local" stroke="hsl(309 82% 79%)" stroke-width=".85"><line x1="694.57" y1="327.66" x2="753.07" y2="383.78" stroke-opacity="0.677" data-edge="0-31" /><line x1="74.58" y1="447.32" x2="186.99" y2="404.56" stroke-opacity="0.656" data-edge="1-22" /><line x1="683.45" y1="427.07" x2="753.07" y2="383.78" stroke-opacity="0.676" data-edge="2-31" /><line x1="106.11" y1="160.57" x2="182.99" y2="167.71" stroke-opacity="0.679" data-edge="3-9" /><line x1="106.11" y1="160.57" x2="186.45" y2="184.35" stroke-opacity="0.675" data-edge="3-14" /><line x1="1108.20" y1="307.71" x2="981.11" y2="123.11" stroke-opacity="0.601" data-edge="5-28" /><line x1="620.50" y1="554.19" x2="552.80" y2="550.29" stroke-opacity="0.684" data-edge="6-11" /><line x1="425.65" y1="58.79" x2="273.49" y2="193.44" stroke-opacity="0.612" data-edge="7-19" /><line x1="591.02" y1="494.85" x2="588.69" y2="407.61" stroke-opacity="0.674" data-edge="8-27" /><line x1="182.99" y1="167.71" x2="273.49" y2="193.44" stroke-opacity="0.670" data-edge="9-19" /><line x1="210.67" y1="511.99" x2="186.99" y2="404.56" stroke-opacity="0.662" data-edge="10-22" /><line x1="503.32" y1="426.96" x2="414.10" y2="454.33" stroke-opacity="0.670" data-edge="13-29" /><line x1="1088.01" y1="529.34" x2="1108.56" y2="271.60" stroke-opacity="0.583" data-edge="15-23" /><line x1="560.06" y1="272.65" x2="677.71" y2="125.73" stroke-opacity="0.620" data-edge="18-26" /></g>
  <g filter="url(#glow)"><circle cx="694.57" cy="327.66" r="2.64" fill="#f7f1ff" fill-opacity="0.783" data-star="0" /><circle cx="74.58" cy="447.32" r="3.50" fill="#f7f1ff" fill-opacity="0.849" data-star="1" /><circle cx="683.45" cy="427.07" r="2.63" fill="#f7f1ff" fill-opacity="0.782" data-star="2" /><circle cx="106.11" cy="160.57" r="2.28" fill="#f7f1ff" fill-opacity="0.755" data-star="3" /><circle cx="142.28" cy="526.12" r="2.57" fill="#f7f1ff" fill-opacity="0.778" data-star="4" /><circle cx="1108.20" cy="307.71" r="5.16" fill="#f7f1ff" fill-opacity="0.977" data-star="5" /><circle cx="620.50" cy="554.19" r="3.76" fill="#f7f1ff" fill-opacity="0.869" data-star="6" /><circle cx="425.65" cy="58.79" r="2.19" fill="#f7f1ff" fill-opacity="0.749" data-star="7" /><circle cx="591.02" cy="494.85" r="2.21" fill="#f7f1ff" fill-opacity="0.750" data-star="8" /><circle cx="182.99" cy="167.71" r="2.03" fill="#f7f1ff" fill-opacity="0.736" data-star="9" /><circle cx="210.67" cy="511.99" r="2.12" fill="#f7f1ff" fill-opacity="0.743" data-star="10" /><circle cx="552.80" cy="550.29" r="4.83" fill="#f7f1ff" fill-opacity="0.951" data-star="11" /><circle cx="423.38" cy="429.62" r="2.81" fill="#f7f1ff" fill-opacity="0.796" data-star="12" /><circle cx="503.32" cy="426.96" r="4.79" fill="#f7f1ff" fill-opacity="0.948" data-star="13" /><circle cx="186.45" cy="184.35" r="2.11" fill="#f7f1ff" fill-opacity="0.742" data-star="14" /><circle cx="1088.01" cy="529.34" r="3.94" fill="#f7f1ff" fill-opacity="0.883" data-star="15" /><circle cx="715.31" cy="390.03" r="3.03" fill="#f7f1ff" fill-opacity="0.813" data-star="16" /><circle cx="144.11" cy="106.15" r="4.72" fill="#f7f1ff" fill-opacity="0.943" data-star="17" /><circle cx="560.06" cy="272.65" r="1.91" fill="#f7f1ff" fill-opacity="0.727" data-star="18" /><circle cx="273.49" cy="193.44" r="3.59" fill="#f7f1ff" fill-opacity="0.856" data-star="19" /><circle cx="438.37" cy="211.33" r="2.19" fill="#f7f1ff" fill-opacity="0.749" data-star="20" /><circle cx="220.99" cy="402.57" r="3.94" fill="#f7f1ff" fill-opacity="0.883" data-star="21" /><circle cx="186.99" cy="404.56" r="2.71" fill="#f7f1ff" fill-opacity="0.789" data-star="22" /><circle cx="1108.56" cy="271.60" r="4.47" fill="#f7f1ff" fill-opacity="0.924" data-star="23" /><circle cx="576.37" cy="286.11" r="3.11" fill="#f7f1ff" fill-opacity="0.819" data-star="24" /><circle cx="638.51" cy="127.56" r="3.87" fill="#f7f1ff" fill-opacity="0.878" data-star="25" /><circle cx="677.71" cy="125.73" r="2.26" fill="#f7f1ff" fill-opacity="0.754" data-star="26" /><circle cx="588.69" cy="407.61" r="3.09" fill="#f7f1ff" fill-opacity="0.818" data-star="27" /><circle cx="981.11" cy="123.11" r="2.06" fill="#f7f1ff" fill-opacity="0.739" data-star="28" /><circle cx="414.10" cy="454.33" r="2.37" fill="#f7f1ff" fill-opacity="0.762" data-star="29" /><circle cx="529.11" cy="456.62" r="3.82" fill="#f7f1ff" fill-opacity="0.874" data-star="30" /><circle cx="753.07" cy="383.78" r="3.97" fill="#f7f1ff" fill-opacity="0.886" data-star="31" /></g>
  <text x="48" y="582" fill="white" fill-opacity="0.84" font-family="system-ui, sans-serif" font-size="24">Curiosity builds constellations</text>
  <text x="1152" y="582" text-anchor="end" fill="white" fill-opacity="0.46" font-family="monospace" font-size="14">nebula · 57180f78edf99b61</text>
</svg>
