<?xml version="1.0" encoding="UTF-8"?>
<svg xmlns="http://www.w3.org/2000/svg" width="1200" height="630" viewBox="0 0 1200 630">
  <title>Constellation for Curiosity builds constellations</title>
  <defs>
    <radialGradient id="sky"><stop stop-color="hsl(9 54% 23%)"/><stop offset="1" stop-color="hsl(9 72% 6%)"/></radialGradient>
  </defs>
  <rect width="1200" height="630" fill="url(#sky)"/>
  <g stroke-width="1.35"><line x1="694.57" y1="327.66" x2="715.31" y2="390.03" stroke="hsl(61 86% 76%)" stroke-opacity="0.495" /><line x1="694.57" y1="327.66" x2="753.07" y2="383.78" stroke="hsl(61 86% 76%)" stroke-opacity="0.465" /><line x1="74.58" y1="447.32" x2="142.28" y2="526.12" stroke="hsl(61 86% 76%)" stroke-opacity="0.422" /><line x1="74.58" y1="447.32" x2="186.99" y2="404.56" stroke="hsl(61 86% 76%)" stroke-opacity="0.391" /><line x1="683.45" y1="427.07" x2="715.31" y2="390.03" stroke="hsl(61 86% 76%)" stroke-opacity="0.527" /><line x1="683.45" y1="427.07" x2="753.07" y2="383.78" stroke="hsl(61 86% 76%)" stroke-opacity="0.464" /><line x1="106.11" y1="160.57" x2="182.99" y2="167.71" stroke="hsl(61 86% 76%)" stroke-opacity="0.473" /><line x1="106.11" y1="160.57" x2="186.45" y2="184.35" stroke="hsl(61 86% 76%)" stroke-opacity="0.460" /><line x1="106.11" y1="160.57" x2="144.11" y2="106.15" stroke="hsl(61 86% 76%)" stroke-opacity="0.493" /><line x1="142.28" y1="526.12" x2="210.67" y2="511.99" stroke="hsl(61 86% 76%)" stroke-opacity="0.487" /><line x1="1108.20" y1="307.71" x2="1088.01" y2="529.34" stroke="hsl(61 86% 76%)" stroke-opacity="0.196" /><line x1="1108.20" y1="307.71" x2="1108.56" y2="271.60" stroke="hsl(61 86% 76%)" stroke-opacity="0.551" /><line x1="1108.20" y1="307.71" x2="981.11" y2="123.11" stroke="hsl(61 86% 76%)" stroke-opacity="0.193" /><line x1="620.50" y1="554.19" x2="591.02" y2="494.85" stroke="hsl(61 86% 76%)" stroke-opacity="0.494" /><line x1="620.50" y1="554.19" x2="552.80" y2="550.29" stroke="hsl(61 86% 76%)" stroke-opacity="0.491" /><line x1="425.65" y1="58.79" x2="273.49" y2="193.44" stroke="hsl(61 86% 76%)" stroke-opacity="0.233" /><line x1="425.65" y1="58.79" x2="438.37" y2="211.33" stroke="hsl(61 86% 76%)" stroke-opacity="0.328" /><line x1="591.02" y1="494.85" x2="552.80" y2="550.29" stroke="hsl(61 86% 76%)" stroke-opacity="0.492" /><line x1="591.02" y1="494.85" x2="588.69" y2="407.61" stroke="hsl(61 86% 76%)" stroke-opacity="0.454" /><line x1="591.02" y1="494.85" x2="529.11" y2="456.62" stroke="hsl(61 86% 76%)" stroke-opacity="0.481" /><line x1="182.99" y1="167.71" x2="186.45" y2="184.35" stroke="hsl(61 86% 76%)" stroke-opacity="0.588" /><line x1="182.99" y1="167.71" x2="144.11" y2="106.15" stroke="hsl(61 86% 76%)" stroke-opacity="0.481" /><line x1="182.99" y1="167.71" x2="273.49" y2="193.44" stroke="hsl(61 86% 76%)" stroke-opacity="0.441" /><line x1="210.67" y1="511.99" x2="220.99" y2="402.57" stroke="hsl(61 86% 76%)" stroke-opacity="0.411" /><line x1="210.67" y1="511.99" x2="186.99" y2="404.56" stroke="hsl(61 86% 76%)" stroke-opacity="0.410" /><line x1="423.38" y1="429.62" x2="503.32" y2="426.96" stroke="hsl(61 86% 76%)" stroke-opacity="0.468" /><line x1="423.38" y1="429.62" x2="414.10" y2="454.33" stroke="hsl(61 86% 76%)" stroke-opacity="0.570" /><line x1="503.32" y1="426.96" x2="414.10" y2="454.33" stroke="hsl(61 86% 76%)" stroke-opacity="0.442" /><line x1="503.32" y1="426.96" x2="529.11" y2="456.62" stroke="hsl(61 86% 76%)" stroke-opacity="0.545" /><line x1="186.45" y1="184.35" x2="273.49" y2="193.44" stroke="hsl(61 86% 76%)" stroke-opacity="0.453" /><line x1="1088.01" y1="529.34" x2="1108.56" y2="271.60" stroke="hsl(61 86% 76%)" stroke-opacity="0.127" /><line x1="715.31" y1="390.03" x2="753.07" y2="383.78" stroke="hsl(61 86% 76%)" stroke-opacity="0.547" /><line x1="560.06" y1="272.65" x2="438.37" y2="211.33" stroke="hsl(61 86% 76%)" stroke-opacity="0.360" /><line x1="560.06" y1="272.65" x2="576.37" y2="286.11" stroke="hsl(61 86% 76%)" stroke-opacity="0.580" /><line x1="560.06" y1="272.65" x2="638.51" y2="127.56" stroke="hsl(61 86% 76%)" stroke-opacity="0.306" /><line x1="560.06" y1="272.65" x2="677.71" y2="125.73" stroke="hsl(61 86% 76%)" stroke-opacity="0.261" /><line x1="220.99" y1="402.57" x2="186.99" y2="404.56" stroke="hsl(61 86% 76%)" stroke-opacity="0.555" /><line x1="1108.56" y1="271.60" x2="981.11" y2="123.11" stroke="hsl(61 86% 76%)" stroke-opacity="0.247" /><line x1="576.37" y1="286.11" x2="588.69" y2="407.61" stroke="hsl(61 86% 76%)" stroke-opacity="0.387" /><line x1="638.51" y1="127.56" x2="677.71" y2="125.73" stroke="hsl(61 86% 76%)" stroke-opacity="0.545" /><line x1="588.69" y1="407.61" x2="529.11" y2="456.62" stroke="hsl(61 86% 76%)" stroke-opacity="0.473" /></g>
  <g><circle cx="694.57" cy="327.66" r="2.64" fill="white" fill-opacity="0.783" /><circle cx="74.58" cy="447.32" r="3.50" fill="white" fill-opacity="0.849" /><circle cx="683.45" cy="427.07" r="2.63" fill="white" fill-opacity="0.782" /><circle cx="106.11" cy="160.57" r="2.28" fill="white" fill-opacity="0.755" /><circle cx="142.28" cy="526.12" r="2.57" fill="white" fill-opacity="0.778" /><circle cx="1108.20" cy="307.71" r="5.16" fill="white" fill-opacity="0.977" /><circle cx="620.50" cy="554.19" r="3.76" fill="white" fill-opacity="0.869" /><circle cx="425.65" cy="58.79" r="2.19" fill="white" fill-opacity="0.749" /><circle cx="591.02" cy="494.85" r="2.21" fill="white" fill-opacity="0.750" /><circle cx="182.99" cy="167.71" r="2.03" fill="white" fill-opacity="0.736" /><circle cx="210.67" cy="511.99" r="2.12" fill="white" fill-opacity="0.743" /><circle cx="552.80" cy="550.29" r="4.83" fill="white" fill-opacity="0.951" /><circle cx="423.38" cy="429.62" r="2.81" fill="white" fill-opacity="0.796" /><circle cx="503.32" cy="426.96" r="4.79" fill="white" fill-opacity="0.948" /><circle cx="186.45" cy="184.35" r="2.11" fill="white" fill-opacity="0.742" /><circle cx="1088.01" cy="529.34" r="3.94" fill="white" fill-opacity="0.883" /><circle cx="715.31" cy="390.03" r="3.03" fill="white" fill-opacity="0.813" /><circle cx="144.11" cy="106.15" r="4.72" fill="white" fill-opacity="0.943" /><circle cx="560.06" cy="272.65" r="1.91" fill="white" fill-opacity="0.727" /><circle cx="273.49" cy="193.44" r="3.59" fill="white" fill-opacity="0.856" /><circle cx="438.37" cy="211.33" r="2.19" fill="white" fill-opacity="0.749" /><circle cx="220.99" cy="402.57" r="3.94" fill="white" fill-opacity="0.883" /><circle cx="186.99" cy="404.56" r="2.71" fill="white" fill-opacity="0.789" /><circle cx="1108.56" cy="271.60" r="4.47" fill="white" fill-opacity="0.924" /><circle cx="576.37" cy="286.11" r="3.11" fill="white" fill-opacity="0.819" /><circle cx="638.51" cy="127.56" r="3.87" fill="white" fill-opacity="0.878" /><circle cx="677.71" cy="125.73" r="2.26" fill="white" fill-opacity="0.754" /><circle cx="588.69" cy="407.61" r="3.09" fill="white" fill-opacity="0.818" /><circle cx="981.11" cy="123.11" r="2.06" fill="white" fill-opacity="0.739" /><circle cx="414.10" cy="454.33" r="2.37" fill="white" fill-opacity="0.762" /><circle cx="529.11" cy="456.62" r="3.82" fill="white" fill-opacity="0.874" /><circle cx="753.07" cy="383.78" r="3.97" fill="white" fill-opacity="0.886" /></g>
  <text x="48" y="582" fill="white" fill-opacity="0.82" font-family="system-ui, sans-serif" font-size="24">Curiosity builds constellations</text>
  <text x="1152" y="582" text-anchor="end" fill="white" fill-opacity="0.42" font-family="monospace" font-size="14">seed 57180f78edf99b61</text>
</svg>
